<svg xmlns:xlink="http://www.w3.org/1999/xlink" xmlns="http://www.w3.org/2000/svg" viewBox="0 0 148.62415 92.40895" width="148.62415"  height="92.40895" ><title>FAB_AskUs</title><g id="Layer_2" data-name="Layer 2" fill="#394048"><g id="Layer_1-2" data-name="Layer 1" fill="#394048"><path class="cls-1" style="cursor: pointer;" d="M145.11386,91.40919a2.40971,2.40971,0,0,1-1.73193-.73486L129.14609,76.438H7.10458a6.11117,6.11117,0,0,1-6.10449-6.10449V7.10451A6.11117,6.11117,0,0,1,7.10458,1h134.415a6.11117,6.11117,0,0,1,6.10449,6.10449L147.62265,70.353l-.00781.14112a1.56764,1.56764,0,0,0,.01465.2207L147.62411,88.917a2.40149,2.40149,0,0,1-.76562,1.80322,2.585,2.585,0,0,1-1.74463.689Z" fill="#5BA63C"></path><path class="cls-2" style="cursor: pointer;" d="M141.51974,2a5.1102,5.1102,0,0,1,5.10441,5.10442v63.2292L146.62408,70.3c-.004.0567-.00738.11345-.00894.17077l-.00149.05535.00155.05533.00873.16574.00022.00146V88.917a1.492,1.492,0,0,1-1.51008,1.49188,1.41226,1.41226,0,0,1-1.02481-.44189L130.146,76.02382l-.58579-.58579H7.1044A5.1102,5.1102,0,0,1,2,70.33362V7.10442A5.11021,5.11021,0,0,1,7.1044,2H141.51974m0-2H7.1044A7.12531,7.12531,0,0,0,0,7.10442v63.2292A7.1253,7.1253,0,0,0,7.1044,77.438H128.73181l13.94324,13.94321a3.41263,3.41263,0,0,0,2.439,1.02771,3.48236,3.48236,0,0,0,3.51008-3.49191V70.62155c0-.03309-.00882-.06376-.00974-.09662.00174-.06415.00974-.12674.00974-.19131V7.10442A7.12528,7.12528,0,0,0,141.51974,0Z" fill="#FFFFFF"></path><polygon class="cls-2" style="" points="109.616 29.134 109.616 13.498 103.961 16.784 103.961 32.419 109.616 29.134" fill="#FFFFFF"></polygon><polygon class="cls-2" style="" points="111.737 48.304 111.737 63.94 117.434 60.655 117.434 45.019 111.737 48.304" fill="#FFFFFF"></polygon><polygon class="cls-2" style="" points="103.961 43.771 103.961 60.655 109.616 63.94 109.616 47.181 119.555 41.443 119.555 59.407 125.252 56.163 125.252 21.275 119.555 18.031 119.555 34.748 103.961 43.771" fill="#FFFFFF"></polygon><polygon class="cls-2" style="" points="101.799 18.031 96.143 21.316 96.143 56.163 101.799 59.407 101.799 42.69 117.434 33.667 117.434 16.784 111.737 13.498 111.737 30.257 101.799 35.995 101.799 18.031" fill="#FFFFFF"></polygon><path class="cls-2" style="" d="M94.02234,22.52209l-4.82373,2.78612a1.86413,1.86413,0,0,0-.87326,1.37227V50.75756a1.81855,1.81855,0,0,0,.87326,1.37227L94.02234,54.916Z" fill="#FFFFFF"></path><path class="cls-2" style="" d="M127.37263,54.916l4.82373-2.78612a1.86416,1.86416,0,0,0,.87326-1.37227V26.68048a1.81855,1.81855,0,0,0-.87326-1.37227l-4.82373-2.78612Z" fill="#FFFFFF"></path><path class="cls-2" style="" d="M15.17734,46.19337,18.92245,32.6172H22.235l3.74512,13.57617H22.91953l-.63038-2.77294H18.86826l-.63038,2.77294Zm4.249-5.05957h2.30469L20.5787,36.02052Z" fill="#FFFFFF"></path><path class="cls-2" style="cursor: pointer;" d="M33.88144,39.81935a7.77793,7.77793,0,0,0-2.89893-.57617c-.81054,0-1.26025.18018-1.26025.63037,0,.46826.30566.57617.8999.63037,2.84522.252,3.63721,1.00781,3.63721,2.88086,0,1.72852-1.02637,3.06055-4.06934,3.06055a8.15543,8.15543,0,0,1-3.27685-.57617v-2.4126a8.74648,8.74648,0,0,0,3.20508.68408c.918,0,1.33252-.17969,1.33252-.62988,0-.46826-.30616-.57617-.9004-.63037-2.84472-.252-3.6372-1.0083-3.6372-2.88086,0-1.83643,1.18847-3.061,3.96142-3.061a7.1716,7.1716,0,0,1,3.00684.46826Z" fill="#FFFFFF"></path><path class="cls-2" style="" d="M38.39755,40.0713l2.30469-2.88086h3.60107l-3.49316,3.67334,3.76318,5.32959H41.0621l-2.08838-3.40283-.57617.61182v2.791h-2.791V32.68947h2.791Z" fill="#FFFFFF"></path><path class="cls-2" style="" d="M48.89072,41.92628V32.68947h2.88086v9.09277c0,1.7461,1.13427,2.05225,2.14257,2.05225s2.14258-.30615,2.14258-2.05225V32.68947h2.88086v9.23681c0,3.709-2.9707,4.51905-5.02344,4.51905S48.89072,45.63527,48.89072,41.92628Z" fill="#FFFFFF"></path><path class="cls-2" style="" d="M67.21689,39.81935a7.77994,7.77994,0,0,0-2.89893-.57617c-.81054,0-1.26074.18018-1.26074.63037,0,.46826.30615.57617.90039.63037,2.84473.252,3.63721,1.00781,3.63721,2.88086,0,1.72852-1.02637,3.06055-4.06934,3.06055a8.15543,8.15543,0,0,1-3.27685-.57617v-2.4126a8.74647,8.74647,0,0,0,3.20507.68408c.918,0,1.332-.17969,1.332-.62988,0-.46826-.30567-.57617-.89991-.63037-2.84521-.252-3.6372-1.0083-3.6372-2.88086,0-1.83643,1.18847-3.061,3.96093-3.061a7.17269,7.17269,0,0,1,3.00733.46826Z" fill="#FFFFFF"></path></g></g></svg>