<svg xmlns:xlink="http://www.w3.org/1999/xlink" xmlns="http://www.w3.org/2000/svg" viewBox="0 0 24 24" aria-label="Visit Huntington's Facebook page" focusable="false" width="24"  height="24" ><title>Visit Huntington's Facebook page</title><path d="M22 3.1v17.8a1.11 1.11 0 01-1.1 1.1h-5.1v-7.8h2.6l.4-3h-3V9.3c0-.9.2-1.5 1.5-1.5h1.6V5.1c-.2 0-1.2-.1-2.3-.1a3.652 3.652 0 00-3.9 4v2.3h-2.6v3h2.6V22H3.1A1.11 1.11 0 012 20.9V3.1A1.11 1.11 0 013.1 2h17.8A1.11 1.11 0 0122 3.1z" fill="#2D822A"></path></svg>