<svg xmlns:xlink="http://www.w3.org/1999/xlink" xmlns="http://www.w3.org/2000/svg" viewBox="0 0 24 24" aria-label="Visit Huntington's Instagram page" focusable="false" width="24"  height="24" ><title>Visit Huntington's Instagram page</title><path d="M12,6.868A5.0523,5.0523,0,0,0,6.9107,12a5.0895,5.0895,0,1,0,10.1786,0A5.0523,5.0523,0,0,0,12,6.868Zm0,8.5534A3.4215,3.4215,0,1,1,15.3929,12,3.5273,3.5273,0,0,1,12,15.4214Zm6.5177-8.8233a1.1608,1.1608,0,1,1-1.1607-1.17A1.1869,1.1869,0,0,1,18.5177,6.5981Zm2.9466-1.2607a5.2808,5.2808,0,0,0-1.1607-1.7107,5.2333,5.2333,0,0,0-1.6965-1.17,5.9126,5.9126,0,0,0-2.5-.45A38.9846,38.9846,0,0,0,12,1.916a38.9858,38.9858,0,0,0-4.1071.09,8.9077,8.9077,0,0,0-2.5.45A5.2344,5.2344,0,0,0,3.6964,3.6267,5.2808,5.2808,0,0,0,2.5357,5.3374a6.0512,6.0512,0,0,0-.4464,2.521A39.9519,39.9519,0,0,0,2,12a39.9543,39.9543,0,0,0,.0893,4.1417,9.1343,9.1343,0,0,0,.4464,2.5218,4.478,4.478,0,0,0,1.1607,1.71,5.22,5.22,0,0,0,1.6965,1.17,5.8989,5.8989,0,0,0,2.5.45A38.9858,38.9858,0,0,0,12,22.084a38.9846,38.9846,0,0,0,4.1071-.09,8.8747,8.8747,0,0,0,2.5-.45,4.4246,4.4246,0,0,0,1.6965-1.17,5.2873,5.2873,0,0,0,1.1607-1.71,6.0557,6.0557,0,0,0,.4464-2.5218A39.9543,39.9543,0,0,0,22,12a39.9519,39.9519,0,0,0-.0893-4.1416A9.1209,9.1209,0,0,0,21.4643,5.3374ZM20.0357,15.9625a3.3679,3.3679,0,0,1-.3571,1.8007,3.1785,3.1785,0,0,1-.7143,1.17,3.1452,3.1452,0,0,1-1.1607.72,5.5027,5.5027,0,0,1-1.7857.3611A38.2786,38.2786,0,0,1,12,20.1032a38.2786,38.2786,0,0,1-4.0179-.0891,3.2862,3.2862,0,0,1-1.7857-.3611,3.146,3.146,0,0,1-1.1607-.72,3.1785,3.1785,0,0,1-.7143-1.17,5.6221,5.6221,0,0,1-.3571-1.8007A38.8562,38.8562,0,0,1,3.875,11.91a38.8345,38.8345,0,0,1,.0893-4.0516,3.3644,3.3644,0,0,1,.3571-1.8008,3.1823,3.1823,0,0,1,.7143-1.17,3.1463,3.1463,0,0,1,1.1607-.72,5.4893,5.4893,0,0,1,1.7857-.36A37.8973,37.8973,0,0,1,12,3.7167a37.8973,37.8973,0,0,1,4.0179.09,3.29,3.29,0,0,1,1.7857.36,3.1455,3.1455,0,0,1,1.1607.72,3.1823,3.1823,0,0,1,.7143,1.17,5.6176,5.6176,0,0,1,.3571,1.8008A38.8345,38.8345,0,0,1,20.125,11.91,38.8562,38.8562,0,0,1,20.0357,15.9625Z" fill="#2D822A"></path></svg>