<svg xmlns:xlink="http://www.w3.org/1999/xlink" xmlns="http://www.w3.org/2000/svg" viewBox="0 0 24 24" aria-label="Visit Huntington's Twitter feed" focusable="false" width="24"  height="24" ><title>Visit Huntington's Twitter feed</title><path d="M19.644 6.341A8.072 8.072 0 0022 5.684a8.399 8.399 0 01-2.052 2.163c.011.178.011.36.011.54 0 5.524-4.125 11.89-11.671 11.89A11.46 11.46 0 012 18.402a8.026 8.026 0 00.979.058 8.129 8.129 0 005.094-1.792 4.111 4.111 0 01-3.831-2.901 4.059 4.059 0 001.852-.07A4.162 4.162 0 012.802 9.6v-.051a4.055 4.055 0 001.862.521 4.239 4.239 0 01-1.27-5.583 11.57 11.57 0 008.455 4.366 4.223 4.223 0 01-.105-.951 4.141 4.141 0 014.1-4.18 4.056 4.056 0 012.997 1.322 8.102 8.102 0 002.606-1.013 4.169 4.169 0 01-1.803 2.311z" fill="#2D822A"></path></svg>