<svg xmlns:xlink="http://www.w3.org/1999/xlink" xmlns="http://www.w3.org/2000/svg" viewBox="0 0 24 24" aria-label="Visit Huntington's YouTube page" focusable="false" width="24"  height="24" ><title>Visit Huntington's YouTube page</title><path d="M19.3546,5.0837A116.3343,116.3343,0,0,0,4.9621,5.0762,3.0177,3.0177,0,0,0,2.2955,7.4526a38.1049,38.1049,0,0,0-.0815,8.7688,3.5246,3.5246,0,0,0,2.8881,2.7074,101.83,101.83,0,0,0,14.3784-.0835,2.6087,2.6087,0,0,0,2.2289-2.21,38.6174,38.6174,0,0,0,.03-9.205A2.7927,2.7927,0,0,0,19.3546,5.0837ZM9.9324,14.6271V8.9492l5.3926,2.8427Z" fill="#2D822A"></path></svg>